<svg xmlns="http://www.w3.org/2000/svg" viewBox="0 0 32 32" width="26" height="26" fill="white">
  <path d="M16 .5C7.4.5.5 7.4.5 16c0 2.8.7 5.4 2.1 7.7L0 32l8.5-2.2c2.2 1.2 4.7 1.9 7.5 1.9 8.6 0 15.5-6.9 15.5-15.5S24.6.5 16 .5zm0 28.2c-2.5 0-4.8-.7-6.8-1.9l-.5-.3-5 1.3 1.3-4.9-.3-.5C3.5 20.4 3 18.2 3 16 3 8.9 8.9 3 16 3s13 5.9 13 13-5.9 12.7-13 12.7zm7.2-9.4c-.4-.2-2.4-1.2-2.8-1.3-.4-.2-.7-.2-1 .2-.3.4-1.1 1.3-1.3 1.6-.2.3-.5.3-.9.1-.4-.2-1.8-.7-3.4-2.2-1.2-1.1-2-2.5-2.3-2.9-.2-.4 0-.6.2-.8.2-.2.4-.5.6-.7.2-.2.3-.4.4-.6.1-.2 0-.5 0-.7-.1-.2-1-2.5-1.4-3.4-.4-.9-.8-.8-1-.8h-.9c-.3 0-.7.1-1 .5s-1.3 1.3-1.3 3.2 1.3 3.7 1.5 4c.2.3 2.6 4 6.3 5.6.9.4 1.6.6 2.1.8.9.3 1.8.3 2.4.2.7-.1 2.4-1 2.7-1.9.3-.9.3-1.7.2-1.9-.1-.2-.4-.3-.8-.5z"></path>
</svg>
